<svg width="1048" height="1024" viewBox="0 0 1048 1024" fill="none" xmlns="http://www.w3.org/2000/svg">
<path fill-rule="evenodd" clip-rule="evenodd" d="M700.088 207.506C764.946 274.811 865.73 310.075 896.016 398.376C929.696 496.573 926.451 614.397 868.948 699.832C812.024 784.408 698.466 799.277 602.655 834.237C510.417 867.894 420.764 906.625 322.488 899.232C209.193 890.709 86.3219 872.335 7.72626 789.482C-93.2841 683 -11.7913 561.306 -4.99992 445.5C1.26892 338.604 -13.9998 169.337 -13.9998 -14C90.5 -23 181.5 -23 268 -23C383.275 -23 451.251 -14.0281 535.412 24.1689C611.946 58.9046 641.659 146.874 700.088 207.506Z" stroke="#FB3B00" stroke-width="2"/>
</svg>
